<?xml version="1.0" encoding="utf-8"?>
<!-- Generator: Adobe Illustrator 21.1.0, SVG Export Plug-In . SVG Version: 6.00 Build 0)  -->
<svg version="1.1" id="Layer_1" xmlns="http://www.w3.org/2000/svg" xmlns:xlink="http://www.w3.org/1999/xlink" x="0px" y="0px"
	 viewBox="0 0 50 50" style="enable-background:new 0 0 50 50;" xml:space="preserve">
<style type="text/css">
	.st0{fill:#005EB8;}
	.st1{opacity:0.15;}
	.st2{fill:#FFFFFF;}
</style>
<g>
	<path class="st0" d="M41.8,50H8.3C3.7,50,0,46.3,0,41.8V8.3C0,3.7,3.7,0,8.3,0h33.5C46.3,0,50,3.7,50,8.3v33.5
		C50,46.3,46.3,50,41.8,50z"/>
</g>
<path class="st1" d="M50,34.5v7.2c0,4.6-3.7,8.3-8.3,8.3h-8.4L12.8,29.5l8.7,0.9l19.9-12.5L50,26L50,34.5z"/>
<polygon class="st2" points="35.6,12.1 21.5,26.3 14.4,19.2 8.6,25 21.5,37.8 41.4,17.9 "/>
</svg>
