<svg id="design" xmlns="http://www.w3.org/2000/svg" viewBox="0 0 200 180"><defs><style>.cls-1{fill:#ed8b00;}.cls-2{fill:#fbb040;}.cls-3{fill:#0383db;}.cls-4{fill:#005eb8;}.cls-5{fill:#fff;}</style></defs><path class="cls-1" d="M109.36,68.55v-14H136.8v14h11.4V52.21a8.78,8.78,0,0,0-8.77-8.79H107.35a8.78,8.78,0,0,0-8.79,8.77V68.55Z"/><path class="cls-2" d="M191.83,68.55H54.33a8.22,8.22,0,0,0-8.17,8.17v95.11A8.22,8.22,0,0,0,54.33,180h137.5a8.22,8.22,0,0,0,8.17-8.17V76.56a8.09,8.09,0,0,0-8.17-8Z"/><path class="cls-3" d="M191.83,68.55H54.33a8.22,8.22,0,0,0-8.17,8.17v95.11A8.22,8.22,0,0,0,54.33,180h137.5a8.22,8.22,0,0,0,8.17-8.17V76.56a8.09,8.09,0,0,0-8.17-8Z"/><path class="cls-4" d="M199.85,114.18V76.56a8.22,8.22,0,0,0-8.17-8.17H54a8.33,8.33,0,0,0-8.17,8.17v37.92Q123.08,159.81,199.85,114.18Z"/><path class="cls-1" d="M130.17,125.28h-14a1.83,1.83,0,0,0-1.7,1.7v20.5a1.83,1.83,0,0,0,1.7,1.7h14a1.83,1.83,0,0,0,1.7-1.7V127C131.71,125.74,131.25,125.28,130.17,125.28Z"/><path class="cls-2" d="M88.77,94c14.92-9.32,24.62-25,24.62-42.52C113.39,23.13,88,0,56.69,0S0,23.13,0,51.47s25.36,51.47,56.69,51.47h4.1c17.9,16,42.15,11.19,42.15,11.19C95.86,110.4,91.75,102.57,88.77,94Z"/><circle class="cls-5" cx="26.67" cy="53.22" r="9.32"/><circle class="cls-5" cx="56.51" cy="53.22" r="9.32"/><circle class="cls-5" cx="86.72" cy="53.22" r="9.32"/></svg>